<svg xmlns="http://www.w3.org/2000/svg" viewBox="0 0 16 16">
  <title>block</title>
  <circle cx="8" cy="8" r="7" fill="#cc75e6" opacity="0.5"/>
  <path d="m 5.7171806,4.6378578 h 2.3994141 q 1.294922,0 1.849284,0.499349 0.4485673,0.4020182 0.4485673,1.1722006 0,0.6178385 -0.410481,1.0198568 -0.3512374,0.3470052 -0.9267582,0.4443359 v 0.059245 q 0.7955729,0.1311849 1.1975912,0.6051433 0.347005,0.4104818 0.347005,1.015625 0,0.9606118 -0.698242,1.4641928 -0.6220704,0.444336 -1.6842449,0.444336 H 5.7171806 Z m 1.1425782,0.8759766 v 1.8873699 h 1.0240885 q 0.7194011,0 1.0748699,-0.3004558 0.2962239,-0.2496744 0.2962239,-0.6770833 0,-0.4951172 -0.3258463,-0.7109375 Q 8.628639,5.5138344 7.9854098,5.5138344 Z m 0,2.7633465 v 2.2089841 h 1.2483724 q 0.702474,0 1.0452474,-0.33431 0.2877605,-0.2835282 0.2877605,-0.7828772 0,-0.5501302 -0.4401042,-0.8378907 Q 8.611712,8.2771809 7.9600192,8.2771809 Z" fill="#231f20" opacity="0.7"/>
</svg>
