<svg xmlns="http://www.w3.org/2000/svg" viewBox="0 0 32 32">
  <title>block@2x</title>
  <circle cx="16" cy="16" r="14" fill="#cc75e6" opacity="0.5"/>
  <path d="m 11.430953,9.2757157 h 4.798828 q 2.589844,0 3.698568,0.9986983 0.897135,0.804036 0.897135,2.344401 0,1.235677 -0.820963,2.039713 -0.702474,0.694011 -1.853516,0.888672 v 0.11849 q 1.591146,0.26237 2.395182,1.210286 0.694011,0.820964 0.694011,2.03125 0,1.921224 -1.396485,2.928386 -1.24414,0.888672 -3.368489,0.888672 h -5.044271 z m 2.285156,1.7519533 v 3.77474 h 2.048177 q 1.438802,0 2.14974,-0.600912 0.592448,-0.499349 0.592448,-1.354167 0,-0.990234 -0.651693,-1.421875 -0.600911,-0.397786 -1.88737,-0.397786 z m 0,5.526693 v 4.417969 h 2.496745 q 1.404948,0 2.090495,-0.66862 0.575521,-0.567057 0.575521,-1.565755 0,-1.100261 -0.880209,-1.675782 -0.778646,-0.507812 -2.082031,-0.507812 z" fill="#231f20" opacity="0.7"/>
</svg>
