<svg xmlns="http://www.w3.org/2000/svg" viewBox="0 0 16 16">
  <title>generic</title>
  <circle cx="8" cy="8" r="7" fill="#a9ff98" opacity="0.5"/>
  <path d="m 10.111653,9.1217724 q 0,2.3867186 -2.3994137,2.3867186 -0.8463542,0 -1.476888,-0.283528 v -0.897136 q 0.7109375,0.40625 1.3499349,0.40625 1.5445964,0 1.5445964,-1.5192056 V 8.740913 h -0.016927 q -0.4866536,0.8294272 -1.4641927,0.8294272 -0.7913412,0 -1.2779949,-0.5755209 Q 5.888346,8.4150667 5.888346,7.4417594 q 0,-1.1044923 0.5205079,-1.756185 0.5205078,-0.6516927 1.4303386,-0.6516927 0.8590495,0 1.273763,0.7024739 h 0.016927 V 5.1354442 H 10.111653 Z M 9.1383462,7.4840771 V 6.9212515 q 0,-0.4570312 -0.3046875,-0.7786458 -0.3004558,-0.3258464 -0.7532553,-0.3258464 -0.5585937,0 -0.8759766,0.4147136 -0.313151,0.4104817 -0.313151,1.1510417 0,0.6389974 0.3004557,1.0240885 0.3046875,0.3808594 0.8040365,0.3808594 0.5078125,0 0.8251953,-0.3639323 0.3173829,-0.3681641 0.3173829,-0.9394531 z" fill="#231f20" opacity="0.6"/>
</svg>
