<svg xmlns="http://www.w3.org/2000/svg" viewBox="0 0 32 32">
  <title>generic@2x</title>
  <circle cx="16" cy="16" r="14" fill="#a9ff98" opacity="0.5"/>
  <path d="m 20.223307,18.276443 q 0,4.773437 -4.798828,4.773437 -1.692709,0 -2.953776,-0.567057 v -1.794271 q 1.421875,0.8125 2.699869,0.8125 3.089193,0 3.089193,-3.038411 v -0.947917 h -0.03385 q -0.973307,1.658854 -2.928385,1.658854 -1.582683,0 -2.55599,-1.151041 -0.964844,-1.159506 -0.964844,-3.10612 0,-2.208985 1.041016,-3.51237 1.041015,-1.303386 2.860677,-1.303386 1.718099,0 2.547526,1.404948 h 0.03385 v -1.201823 h 1.963542 z m -1.946615,-3.275391 v -1.125651 q 0,-0.914063 -0.609375,-1.557292 -0.600911,-0.651692 -1.50651,-0.651692 -1.117188,0 -1.751953,0.829427 -0.626302,0.820963 -0.626302,2.302083 0,1.277995 0.600911,2.048177 0.609375,0.761719 1.608073,0.761719 1.015625,0 1.650391,-0.727865 0.634765,-0.736328 0.634765,-1.878906 z" fill="#231f20" opacity="0.6"/>
</svg>
