<svg xmlns="http://www.w3.org/2000/svg" viewBox="0 0 32 32">
  <title>implementedSubprogram@2x</title>
  <g transform="translate(-3)">
    <circle cx="16" cy="16" r="12" fill="#ffff00" opacity="0.7"/>
    <path d="m 21.205078,10.113607 q 0,0.40625 -0.211588,0.651693 -0.203125,0.236979 -0.609375,0.236979 -0.40625,0 -0.761719,-0.347005 -0.347005,-0.347005 -0.702474,-1.1341149 -0.702474,0.1100261 -1.134115,0.8886719 -0.43164,0.770182 -0.626302,2.454427 l -0.11849,1.024089 h 2.175131 v 0.8125 h -2.251302 q -0.08464,0.888672 -0.177735,1.743489 -0.0931,0.854818 -0.220052,1.667318 -0.236979,1.514974 -0.643229,2.4375 -0.40625,0.93099 -0.964844,1.506511 -0.507812,0.507812 -1.134114,0.770182 -0.626303,0.26237 -1.320313,0.26237 -0.8125,0 -1.261068,-0.347005 -0.448567,-0.338542 -0.448567,-0.837891 0,-0.380859 0.211588,-0.634766 0.211589,-0.253906 0.609375,-0.253906 0.397787,0 0.744792,0.330078 0.355469,0.330078 0.719401,1.134115 0.685547,-0.0931 1.091797,-0.922526 0.414713,-0.829427 0.651692,-2.420573 0.194662,-1.33724 0.313152,-2.420573 0.118489,-1.083334 0.211588,-2.014323 h -1.726562 v -0.8125 h 1.802734 q 0.160807,-1.421875 0.541667,-2.344401 0.380859,-0.922526 1.057942,-1.6250004 0.490886,-0.5078125 1.108724,-0.7532553 0.617839,-0.2539062 1.362631,-0.2539062 0.795573,0 1.252604,0.3470052 0.457031,0.3470052 0.457031,0.8548177 z" fill="#231f20" opacity="0.7"/>
  </g>
  <g transform="scale(2)">
    <path d="m 12.959961,2.0917969 -0.13672,10.6777341 1,0.0039 0.13672,-10.6777349 z"/>
    <path d="m 13.33334,15.359513 -2.47249,-2.604473 4.9999,0.01905 z"/>
  </g>
</svg>
