<svg xmlns="http://www.w3.org/2000/svg" viewBox="0 0 16 16">
  <title>implementedSubprogram</title>
  <g transform="translate(-1.5)">
    <circle cx="8" cy="8" r="6" fill="#ffff00" opacity="0.7"/>
    <path d="m 10.602539,5.0568035 q 0,0.203125 -0.105794,0.3258464 -0.101563,0.1184896 -0.304688,0.1184896 -0.2031247,0 -0.3808591,-0.1735026 Q 9.6376953,5.1541343 9.4599609,4.7605796 9.1087239,4.8155926 8.8929036,5.2049155 8.6770833,5.5900067 8.5797525,6.4321291 l -0.059245,0.5120443 h 1.0875652 v 0.40625 H 8.4824218 q -0.042318,0.444336 -0.088867,0.8717448 -0.046549,0.4274089 -0.110026,0.8336589 -0.1184896,0.757487 -0.3216146,1.2187499 -0.203125,0.465495 -0.4824219,0.753255 -0.2539063,0.253907 -0.5670573,0.385092 -0.3131511,0.131184 -0.6601563,0.131184 -0.40625,0 -0.6305339,-0.173502 -0.2242838,-0.169271 -0.2242838,-0.418945 0,-0.19043 0.1057942,-0.317383 0.1057943,-0.126953 0.3046875,-0.126953 0.1988933,0 0.3723959,0.165039 0.1777344,0.165039 0.3597005,0.567057 0.3427735,-0.04655 0.5458985,-0.461263 Q 7.2932942,10.363444 7.4117837,9.5678714 7.5091145,8.8992516 7.5683593,8.3575849 7.6276041,7.8159182 7.6741535,7.3504234 H 6.8108723 v -0.40625 H 7.7122395 Q 7.7926431,6.2332359 7.9830728,5.7719728 8.1735025,5.3107098 8.5120442,4.9594728 8.7574869,4.7055665 9.0664062,4.5828452 9.3753255,4.455892 9.7477213,4.455892 q 0.3977867,0 0.6263017,0.1735027 0.228516,0.1735026 0.228516,0.4274088 z" fill="#231f20" opacity="0.7"/>
  </g>
  <g>
    <path d="m 12.959961,14.037473 -0.13672,-10.677734 1,-0.0039 0.13672,10.677735 z"/>
    <path d="M 13.33334,0.769757 10.86085,3.37423 15.86075,3.35518 Z"/>
  </g>
</svg>
