<svg xmlns="http://www.w3.org/2000/svg" viewBox="0 0 32 32">
  <title>package@2x</title>
  <path d="M22,3.36522a13.86717,13.86717,0,0,0-12,0V28.63475a13.86717,13.86717,0,0,0,12,0V3.36522Z" fill="#aad400" opacity="0.5"/>
  <path d="m 14.710452,17.679999 v 4.561849 H 12.509931 V 9.8512225 q 2.200521,-0.093099 2.572916,-0.093099 2.936849,0 4.291016,0.9055995 1.36263,0.897135 1.36263,2.809896 0,4.265625 -5.027343,4.265625 -0.372396,0 -0.998698,-0.05925 z m 0,-5.92448 v 3.969402 q 0.558593,0.05924 0.880208,0.05924 1.50651,0 2.200521,-0.499349 0.69401,-0.507812 0.69401,-1.641927 0,-1.929687 -3.10612,-1.929687 -0.347005,0 -0.668619,0.04232 z" fill="#231f20" opacity="0.6"/>
  <path d="M8,4.52A13.9825,13.9825,0,0,0,8,27.48V4.52Z" fill="#9aa7b0" opacity="0.6"/>
  <path d="M24,4.52V27.48A13.9825,13.9825,0,0,0,24,4.52Z" fill="#9aa7b0" opacity="0.6"/>
</svg>
  
