<svg xmlns="http://www.w3.org/2000/svg" viewBox="0 0 16 16">
  <title>package</title>
  <path d="M11,1.68261a6.93358,6.93358,0,0,0-6,0V14.31737a6.93358,6.93358,0,0,0,6,0V1.68261Z" fill="#aad400" opacity="0.5"/>
  <path d="M 7.3552263,8.8399966 V 11.120921 H 6.2549658 V 4.9256084 q 1.1002605,-0.046549 1.2864584,-0.046549 1.4684245,0 2.1455079,0.4527995 0.6813149,0.4485677 0.6813149,1.404948 0,2.1328126 -2.5136718,2.1328126 -0.1861979,0 -0.4993489,-0.029622 z m 0,-2.9622397 v 1.9847006 q 0.2792968,0.029622 0.4401041,0.029622 0.7532553,0 1.1002605,-0.2496745 0.3470052,-0.2539063 0.3470052,-0.8209636 0,-0.9648438 -1.5530599,-0.9648438 -0.1735026,0 -0.3343099,0.021159 z" fill="#231f20" opacity="0.6"/>
  <path d="M4,2.26A6.99125,6.99125,0,0,0,4,13.74V2.26Z" fill="#9aa7b0" opacity="0.6"/>
  <path d="M12,2.26V13.74A6.99125,6.99125,0,0,0,12,2.26Z" fill="#9aa7b0" opacity="0.6"/>
</svg>
