<svg xmlns="http://www.w3.org/2000/svg" viewBox="0 0 16 16">
  <title>vhd</title>
  <polygon points="6 0 2 4 6 4 6 0" fill="#9aa7b0" opacity="0.7"/>
  <rect x="1" y="9" width="15" height="7" fill="#0ffca1" opacity="0.6"/>
  <polygon points="7 0 7 4 7 5 6 5 2 5 2 8 13 8 13 0 7 0" fill="#9aa7b0" opacity="0.7"/>
  <path d="M 3.848951,15.067154 H 3.3601815 L 1.4871346,9.9914703 h 0.977539 L 3.623365,13.375259 4.8469979,9.9914703 h 0.9570312 z" fill="#231f20" opacity="0.6"/>
  <path d="M 9.3463478,15.00434 V 12.748481 H 7.353672 V 15.00434 H 6.4650002 V 9.997016 H 7.353672 V 11.95893 H 9.3463478 V 9.997016 h 0.8784182 v 5.007324 z" fill="#231f20" opacity="0.6"/>
  <path d="m 12.481275,15.001696 h -1.11084 V 9.9977894 q 1.062988,-0.037598 1.336426,-0.037598 1.09375,0 1.73291,0.6425783 0.642578,0.63916 0.642578,1.69873 0,2.700196 -2.601074,2.700196 z m -0.222168,-4.228028 v 3.417969 q 0.215332,0.02051 0.464843,0.02051 0.67334,0 1.052735,-0.48877 0.382812,-0.488769 0.382812,-1.367187 0,-1.606445 -1.493652,-1.606445 -0.143555,0 -0.406738,0.02393 z" fill="#231f20" opacity="0.6"/>
</svg>
