<svg xmlns="http://www.w3.org/2000/svg" viewBox="0 0 32 32">
  <title>implementedPackage@2x</title>
  <g transform="translate(-3)">
    <circle cx="16" cy="16" r="12" fill="#aad400" opacity="0.5"/>
    <path d="m 14.710452,17.680012 v 4.561849 H 12.509931 V 9.8512359 q 2.200521,-0.093099 2.572916,-0.093099 2.936849,0 4.291016,0.9055991 1.36263,0.897135 1.36263,2.809896 0,4.265625 -5.027343,4.265625 -0.372396,0 -0.998698,-0.05924 z m 0,-5.924479 v 3.969401 q 0.558593,0.05925 0.880208,0.05925 1.50651,0 2.200521,-0.499349 0.69401,-0.507813 0.69401,-1.641927 0,-1.929688 -3.10612,-1.929688 -0.347005,0 -0.668619,0.04232 z" fill="#231f20" opacity="0.7"/>
  </g>
  <g transform="scale(2)">
    <path d="m 12.959961,2.0917969 -0.13672,10.6777341 1,0.0039 0.13672,-10.6777349 z"/>
    <path d="m 13.33334,15.359513 -2.47249,-2.604473 4.9999,0.01905 z"/>
  </g>
</svg>
