<svg xmlns="http://www.w3.org/2000/svg" viewBox="0 0 16 16">
  <title>implementedPackage</title>
  <g transform="translate(-1.5)">
    <circle cx="8" cy="8" r="6" fill="#aad400" opacity="0.5"/>
    <path d="M 7.348705,8.8400061 V 11.120931 H 6.2484446 V 4.9256179 q 1.1002604,-0.046549 1.2864584,-0.046549 1.4684245,0 2.1455079,0.4527995 0.6813151,0.4485677 0.6813151,1.4049479 0,2.1328126 -2.513672,2.1328126 -0.1861979,0 -0.499349,-0.029623 z m 0,-2.9622397 V 7.862467 q 0.2792969,0.029622 0.4401042,0.029622 0.7532553,0 1.1002605,-0.2496745 0.3470052,-0.2539062 0.3470052,-0.8209636 0,-0.9648437 -1.55306,-0.9648437 -0.1735026,0 -0.3343099,0.021159 z" fill="#231f20" opacity="0.7"/>
  </g>
  <g>
    <path d="m 12.959961,2.0917969 -0.13672,10.6777341 1,0.0039 0.13672,-10.6777349 z"/>
    <path d="m 13.33334,15.359513 -2.47249,-2.604473 4.9999,0.01905 z"/>
  </g>
</svg>
