<svg xmlns="http://www.w3.org/2000/svg" viewBox="0 0 32 32">
  <title>process@2x</title>
  <circle cx="16" cy="16" r="14" fill="#00ff00" opacity="0.5"/>
  <path d="m 22.491216,10.438228 c 1.880386,2.240956 2.402106,5.16967 1.654602,7.785556 l 1.404696,1.674052 C 27.001664,16.434616 26.513144,12.301821 23.93374,9.2278074 20.461068,5.0892366 14.440084,4.3499232 10.091054,7.378497 L 8.853406,5.9035242 7.784008,10.488108 12.48464,10.231063 11.307518,8.8282208 C 14.854016,6.463234 19.687276,7.096619 22.491216,10.438228 Z" fill="#231f20" opacity="0.7"/>
  <path d="m 8.066018,22.542404 c 3.263276,3.889024 8.77674,4.776406 13.039104,2.35645 l 1.319952,1.573056 1.069428,-4.58461 -4.700688,0.257042 1.07546,1.281684 C 16.428344,25.196088 12.100646,24.421134 9.50854,21.331984 7.87023,19.379522 7.263274,16.905804 7.628618,14.571268 L 7.323608,14.352766 6.087784,12.879968 c -0.977332,3.234038 -0.355472,6.881236 1.978234,9.662436 z" fill="#231f20" opacity="0.7"/>
</svg>
