<svg xmlns="http://www.w3.org/2000/svg" viewBox="0 0 16 16">
  <title>process</title>
  <circle cx="8" cy="8" r="7" fill="#00ff00" opacity="0.5"/>
  <path d="m 11.245608,5.2191136 c 0.940193,1.120478 1.201053,2.5848348 0.827301,3.8927781 l 0.702348,0.8370262 C 13.500832,8.2173078 13.256572,6.1509105 11.96687,4.6139035 10.230534,2.5446181 7.2200423,2.1749614 5.0455272,3.6892483 L 4.4267029,2.9517619 3.8920039,5.244054 6.2423204,5.1155312 5.6537585,4.4141102 C 7.4270079,3.2316168 9.8436376,3.5483093 11.245608,5.2191136 Z" fill="#231f20" opacity="0.7"/>
  <path d="m 4.0330085,11.271202 c 1.6316389,1.944512 4.3883706,2.388203 6.5195525,1.178225 l 0.659976,0.786528 0.534714,-2.292305 -2.3503442,0.128521 0.5377303,0.640842 C 8.2141721,12.598044 6.0503225,12.210567 4.7542701,10.665992 3.9351145,9.6897603 3.6316372,8.4529019 3.8143091,7.285634 L 3.661804,7.1763823 3.0438924,6.4399838 C 2.555226,8.0570029 2.8661564,9.8806016 4.0330085,11.271202 Z" fill="#231f20" opacity="0.7"/>
</svg>
