<svg xmlns="http://www.w3.org/2000/svg" viewBox="0 0 16 16">
  <title>subprogram</title>
  <path d="M11,1.68261a6.93358,6.93358,0,0,0-6,0V14.31737a6.93358,6.93358,0,0,0,6,0V1.68261Z" fill="#ffff00" opacity="0.7"/>
  <path d="m 10.602539,5.056793 q 0,0.203125 -0.105794,0.3258464 -0.101563,0.1184896 -0.304688,0.1184896 -0.2031247,0 -0.3808591,-0.1735026 Q 9.6376953,5.1541238 9.4599609,4.7605691 9.1087239,4.8155821 8.8929036,5.204905 8.6770833,5.5899962 8.5797525,6.4321186 l -0.059245,0.5120443 h 1.0875652 v 0.40625 H 8.4824218 q -0.042318,0.444336 -0.088867,0.8717448 -0.046549,0.4274089 -0.110026,0.8336589 -0.1184896,0.757487 -0.3216146,1.2187504 -0.203125,0.465494 -0.4824219,0.753255 -0.2539063,0.253906 -0.5670573,0.385091 -0.3131511,0.131185 -0.6601563,0.131185 -0.40625,0 -0.6305339,-0.173503 -0.2242838,-0.16927 -0.2242838,-0.418945 0,-0.19043 0.1057942,-0.317383 0.1057943,-0.126953 0.3046875,-0.126953 0.1988933,0 0.3723959,0.165039 0.1777344,0.165039 0.3597005,0.567057 0.3427735,-0.04655 0.5458985,-0.461263 Q 7.2932942,10.363434 7.4117837,9.5678609 7.5091145,8.8992411 7.5683593,8.3575744 7.6276041,7.8159077 7.6741535,7.3504129 H 6.8108723 v -0.40625 H 7.7122395 Q 7.7926431,6.2332254 7.9830728,5.7719623 8.1735025,5.3106993 8.5120442,4.9594623 8.7574869,4.705556 9.0664062,4.5828347 9.3753255,4.4558816 9.7477213,4.4558816 q 0.3977867,0 0.6263017,0.1735026 0.228516,0.1735026 0.228516,0.4274088 z" fill="#231f20" opacity="0.7"/>
  <path d="M4,2.26A6.99125,6.99125,0,0,0,4,13.74V2.26Z" fill="#9aa7b0" opacity="0.7"/>
  <path d="M12,2.26V13.74A6.99125,6.99125,0,0,0,12,2.26Z" fill="#9aa7b0" opacity="0.7"/>
</svg>
