<svg xmlns="http://www.w3.org/2000/svg" viewBox="0 0 32 32">
  <title>vhd@2x</title>
  <polygon points="12 0 4 8 12 8 12 0" fill="#9aa7b0" opacity="0.7"/>
  <rect x="2" y="18" width="30" height="14" fill="#0ffca1" opacity="0.7"/>
  <polygon points="14 0 14 8 14 10 12 10 4 10 4 16 26 16 26 0 14 0" fill="#9aa7b0" opacity="0.7"/>
  <path d="M 7.7025054,30.114399 H 6.7249663 L 2.9788725,19.963032 h 1.9550782 l 2.3173828,6.767578 2.4472656,-6.767578 h 1.9140629 z" fill="#231f20" opacity="0.7"/>
  <path d="m 18.670127,30.031136 v -4.511719 h -3.985352 v 4.511719 H 12.907432 V 20.016487 h 1.777343 v 3.923828 h 3.985352 v -3.923828 h 1.756836 v 10.014649 z" fill="#231f20" opacity="0.7"/>
  <path d="M 24.920778,30.028488 H 22.699099 V 20.020676 q 2.125976,-0.0752 2.672851,-0.0752 2.1875,0 3.46582,1.285157 1.285157,1.27832 1.285157,3.397461 0,5.40039 -5.202149,5.40039 z m -0.444336,-8.456055 v 6.835938 q 0.430664,0.04102 0.929688,0.04102 1.34668,0 2.105469,-0.977539 0.765625,-0.97754 0.765625,-2.734375 0,-3.212891 -2.987305,-3.212891 -0.287109,0 -0.813477,0.04785 z" fill="#231f20" opacity="0.7"/>
</svg>
